<svg xmlns="http://www.w3.org/2000/svg" viewBox="0 0 32 32" fill="none">
  <!-- Cat head outline with ears -->
  <path
    d="M16 28c-7 0-12-3-12-8c0-3.5 3-8.5 7-12c0 0-0.5-4.5 1-5c1.2-0.4 4 3 4 3c2-0.8 4-0.8 6 0c0 0 2.8-3.4 4-3c1.5 0.5 1 5 1 5c4 3.5 7 8.5 7 12c0 5-5 8-12 8"
    stroke="#6B6C6E"
    stroke-width="2"
    stroke-linecap="round"
    stroke-linejoin="round"
  />
  <!-- Eyes -->
  <circle cx="11" cy="18" r="1.5" fill="#6B6C6E"/>
  <circle cx="21" cy="18" r="1.5" fill="#6B6C6E"/>
  <!-- Nose -->
  <path d="M16 21 L14.5 23 L17.5 23 Z" fill="#6B6C6E"/>
  <!-- Mouth -->
  <path d="M16 23 Q16 25 14 26" stroke="#6B6C6E" stroke-width="1.5" fill="none" stroke-linecap="round"/>
  <path d="M16 23 Q16 25 18 26" stroke="#6B6C6E" stroke-width="1.5" fill="none" stroke-linecap="round"/>
</svg>
